<svg
  viewBox="0 0 511.998 511.998"
  xmlns="http://www.w3.org/2000/svg"
>
  <g>
    <path fill="#f55767" d="m64.127 288.066c0 4.142 3.358 7.5 7.5 7.5h40.081c4.142 0 7.5-3.358 7.5-7.5s-3.358-7.5-7.5-7.5h-40.081c-4.142 0-7.5 3.358-7.5 7.5z"/>
    <path fill="#f55767" d="m447.869 288.066c0-4.142-3.358-7.5-7.5-7.5h-40.081c-4.142 0-7.5 3.358-7.5 7.5s3.358 7.5 7.5 7.5h40.081c4.142 0 7.5-3.358 7.5-7.5z"/>
    <path fill="#f55767" d="m263.498 143.776v-40.081c0-4.142-3.358-7.5-7.5-7.5s-7.5 3.358-7.5 7.5v40.081c0 4.142 3.358 7.5 7.5 7.5s7.5-3.358 7.5-7.5z"/>
    <path fill="#f55767" d="m332.145 163.666c2.592 0 5.113-1.346 6.502-3.751l16.032-27.769c2.071-3.587.842-8.174-2.745-10.245-3.588-2.072-8.174-.842-10.245 2.745l-16.032 27.769c-2.071 3.587-.842 8.174 2.745 10.245 1.181.682 2.47 1.006 3.743 1.006z"/>
    <path fill="#f55767" d="m179.852 163.666c1.272 0 2.562-.324 3.743-1.006 3.587-2.071 4.816-6.658 2.745-10.245l-16.032-27.769c-2.072-3.587-6.658-4.816-10.245-2.745s-4.816 6.658-2.745 10.245l16.032 27.769c1.389 2.406 3.91 3.751 6.502 3.751z"/>
    <path fill="#f55767" d="m89.833 192.131c-2.071 3.587-.842 8.174 2.745 10.245l27.769 16.032c1.181.682 2.471 1.006 3.743 1.006 2.592 0 5.113-1.346 6.502-3.751 2.071-3.587.842-8.174-2.745-10.245l-27.769-16.032c-3.587-2.073-8.174-.842-10.245 2.745z"/>
    <path fill="#f55767" d="m391.65 357.725c-3.587-2.072-8.174-.842-10.245 2.745s-.842 8.174 2.745 10.245l27.769 16.032c1.181.682 2.471 1.006 3.743 1.006 2.592 0 5.113-1.346 6.502-3.751 2.071-3.587.842-8.174-2.745-10.245z"/>
    <path fill="#f55767" d="m96.335 387.753c1.272 0 2.562-.324 3.743-1.006l27.769-16.032c3.587-2.071 4.816-6.658 2.745-10.245-2.072-3.587-6.659-4.816-10.245-2.745l-27.769 16.032c-3.587 2.071-4.816 6.658-2.745 10.245 1.389 2.406 3.91 3.751 6.502 3.751z"/>
    <path fill="#f55767" d="m411.918 189.386-27.769 16.032c-3.587 2.071-4.816 6.658-2.745 10.245 1.389 2.406 3.91 3.751 6.502 3.751 1.272 0 2.562-.324 3.743-1.006l27.769-16.032c3.587-2.071 4.816-6.658 2.745-10.245-2.071-3.588-6.657-4.818-10.245-2.745z"/>
    <path fill="#f55767" d="m77.905 343.287c.643 0 1.296-.083 1.946-.257l15.486-4.149c4.001-1.072 6.375-5.185 5.304-9.186-1.072-4.001-5.185-6.374-9.186-5.304l-15.486 4.149c-4.001 1.072-6.375 5.185-5.304 9.186.898 3.351 3.928 5.561 7.24 5.561z"/>
    <path fill="#f55767" d="m432.146 233.103-15.486 4.149c-4.001 1.072-6.375 5.185-5.304 9.186.898 3.351 3.928 5.561 7.24 5.561.643 0 1.296-.083 1.946-.257l15.486-4.149c4.001-1.072 6.375-5.185 5.304-9.186-1.072-4.002-5.187-6.372-9.186-5.304z"/>
    <path fill="#f55767" d="m215.524 108.037c-1.072-4.001-5.187-6.374-9.186-5.304-4.001 1.072-6.375 5.185-5.304 9.186l4.149 15.486c.898 3.351 3.928 5.561 7.24 5.561.643 0 1.296-.083 1.946-.257 4.001-1.072 6.375-5.185 5.304-9.186z"/>
    <path fill="#f55767" d="m299.573 132.966c3.311 0 6.342-2.21 7.24-5.561l4.149-15.486c1.072-4.001-1.303-8.113-5.304-9.186-3.995-1.069-8.113 1.302-9.186 5.304l-4.149 15.486c-1.072 4.001 1.303 8.113 5.304 9.186.65.173 1.302.257 1.946.257z"/>
    <path fill="#f55767" d="m75.969 247.592 15.486 4.149c.65.174 1.303.257 1.946.257 3.311 0 6.342-2.21 7.24-5.561 1.072-4.001-1.303-8.113-5.304-9.186l-15.486-4.149c-3.995-1.068-8.113 1.302-9.186 5.304-1.072 4.002 1.303 8.114 5.304 9.186z"/>
    <path fill="#f55767" d="m434.092 343.287c3.311 0 6.342-2.21 7.24-5.561 1.072-4.001-1.303-8.113-5.304-9.186l-15.486-4.149c-3.997-1.069-8.113 1.302-9.186 5.304-1.072 4.001 1.303 8.113 5.304 9.186l15.486 4.149c.65.174 1.303.257 1.946.257z"/>
    <path fill="#f55767" d="m136.965 176.533c1.919 0 3.839-.732 5.303-2.197 2.929-2.929 2.929-7.677 0-10.606l-11.336-11.337c-2.929-2.93-7.678-2.929-10.606 0-2.929 2.929-2.929 7.677 0 10.606l11.336 11.337c1.464 1.465 3.383 2.197 5.303 2.197z"/>
    <path fill="#f55767" d="m391.672 162.999c2.929-2.929 2.929-7.678 0-10.606-2.929-2.929-7.678-2.929-10.606 0l-11.337 11.337c-2.929 2.929-2.929 7.678 0 10.606 1.464 1.464 3.384 2.197 5.303 2.197s3.839-.732 5.303-2.197z"/>
    <path fill="#f55767" d="m490.09 184.292c-14.042-31.629-34.042-59.69-59.444-83.402-25.356-23.669-54.66-41.656-87.096-53.46-33.761-12.286-69.317-17.243-105.68-14.739-62.309 4.294-120.93 31.641-165.066 77.002-44.117 45.342-69.887 104.693-72.564 167.12-2.819 65.753 19.279 129.256 62.224 178.811 13.391 15.452 33.02 24.313 53.854 24.313h279.365c20.824 0 40.434-8.842 53.803-24.26 40.312-46.491 62.512-106.017 62.512-167.611 0-36.113-7.371-71.028-21.908-103.774zm-51.937 261.558c-10.518 12.13-25.998 19.087-42.47 19.087h-279.365c-16.481 0-31.979-6.975-42.518-19.137-40.426-46.648-61.229-106.435-58.574-168.345 2.519-58.741 26.785-114.605 68.328-157.302 41.557-42.711 96.727-68.458 155.347-72.498 34.257-2.36 67.741 2.305 99.519 13.87 30.53 11.111 58.116 28.044 81.99 50.329 23.92 22.329 42.751 48.748 55.97 78.523 13.681 30.817 20.618 63.685 20.618 97.688 0 57.987-20.898 114.022-58.845 157.785z"/>
    <path fill="#f55767" d="m352.189 432.873h-235.847c-7.217 0-14.06-3.143-18.775-8.623-34.298-39.856-52.189-90.836-50.377-143.55 1.6-46.574 19.399-92.021 50.117-127.966 2.691-3.149 2.32-7.883-.829-10.574-3.148-2.69-7.882-2.32-10.574.829-32.916 38.518-51.989 87.241-53.705 137.196-1.941 56.49 17.236 111.128 53.999 153.849 7.567 8.795 18.555 13.839 30.145 13.839h235.847c4.142 0 7.5-3.358 7.5-7.5s-3.359-7.5-7.501-7.5z"/>
    <path fill="#f55767" d="m460.928 197.65c-12.181-27.568-29.538-52.057-51.591-72.784-22.016-20.693-47.479-36.474-75.682-46.901-29.338-10.848-60.261-15.351-91.914-13.392-48.544 3.01-93.948 21.608-131.303 53.784-3.139 2.703-3.491 7.439-.788 10.577 2.704 3.139 7.44 3.491 10.577.788 34.853-30.021 77.193-47.372 122.442-50.177 58.412-3.624 113.95 16.356 156.395 56.251 20.581 19.345 36.779 42.195 48.143 67.917 11.762 26.621 17.726 55.002 17.726 84.354 0 50.019-17.965 98.417-50.586 136.28-4.668 5.419-11.48 8.527-18.687 8.527h-11.405c-4.142 0-7.5 3.358-7.5 7.5s3.358 7.5 7.5 7.5h11.405c11.577 0 22.53-5.006 30.051-13.736 34.966-40.584 54.222-92.46 54.222-146.071.001-31.454-6.394-61.874-19.005-90.417z"/>
    <path fill="#f55767" d="m192.385 368.227v16.033c0 8.556 6.96 15.516 15.516 15.516h96.193c8.556 0 15.516-6.96 15.516-15.516v-16.033c0-8.556-6.96-15.516-15.516-15.516h-96.193c-8.555 0-15.516 6.961-15.516 15.516zm15 0c0-.285.231-.516.516-.516h96.193c.285 0 .516.231.516.516v16.033c0 .285-.231.516-.516.516h-96.193c-.285 0-.516-.231-.516-.516z"/>
    <path fill="#f55767" d="m218.631 325.434c1.464 1.465 3.384 2.197 5.303 2.197s3.839-.732 5.303-2.197l10.399-10.398c5.009 3.038 10.684 4.564 16.363 4.564 8.079 0 16.158-3.075 22.308-9.226 10.473-10.473 12.023-26.536 4.661-38.671l70.52-70.52c2.929-2.929 2.929-7.678 0-10.606-2.929-2.929-7.678-2.929-10.606 0l-70.52 70.52c-12.135-7.362-28.198-5.813-38.671 4.661-10.473 10.473-12.023 26.536-4.661 38.671l-10.399 10.398c-2.93 2.929-2.93 7.678 0 10.607zm25.666-49.069c3.227-3.226 7.463-4.839 11.702-4.839 4.237 0 8.476 1.613 11.702 4.839 3.125 3.125 4.847 7.281 4.847 11.702s-1.721 8.576-4.847 11.702-7.281 4.847-11.702 4.847-8.576-1.721-11.702-4.847-4.847-7.281-4.847-11.702 1.721-8.577 4.847-11.702z"/>
  </g>
</svg>