<svg
  viewBox="0 0 512 512"
  xmlns="http://www.w3.org/2000/svg"
>
  <circle cx="336" cy="56" r="8"/>
  <circle cx="368" cy="56" r="8"/>
  <path d="m248 48h64v16h-64z"/>
  <path d="m248 448h64v16h-64z"/>
  <path d="m488 448h-24v-233.373a62.623 62.623 0 0 0 -56-62.274v-112.353a24.0275 24.0275 0 0 0 -24-24h-208a24.0275 24.0275 0 0 0 -24 24v72h-128a8.00039 8.00039 0 0 0 -8 8v272a8.00039 8.00039 0 0 0 8 8h128v72a24.0275 24.0275 0 0 0 24 24h208a24.0275 24.0275 0 0 0 24-24v-8h72v32h16v-40a8.00039 8.00039 0 0 0 -8-8zm-312-416h208a8.00917 8.00917 0 0 1 8 8v41.37622a23.88238 23.88238 0 0 0 -8-1.37622h-208a23.88238 23.88238 0 0 0 -8 1.37622v-41.37622a8.00917 8.00917 0 0 1 8-8zm136 368v-16h-280v-256h280v-16h-144v-8a8.00917 8.00917 0 0 1 8-8h208a8.00917 8.00917 0 0 1 8 8v101.17676a33.45765 33.45765 0 0 0 -43.65723 50.48047l40.34375 40.34277-5.08886 5.08789a72.08353 72.08353 0 0 0 0 101.82422l7.8872 7.88623a8.00607 8.00607 0 0 1 -7.48486 5.20166h-208a8.00917 8.00917 0 0 1 -8-8v-8zm80 72a8.00917 8.00917 0 0 1 -8 8h-208a8.00917 8.00917 0 0 1 -8-8v-41.37622a23.88238 23.88238 0 0 0 8 1.37622h208a23.88238 23.88238 0 0 0 8-1.37622zm16-24v-40a8.00235 8.00235 0 0 0 -2.34277-5.65723l-10.74512-10.74511a56.06163 56.06163 0 0 1 0-79.19532l10.74512-10.74511a8.00122 8.00122 0 0 0 0-11.31446l-46-46a17.45531 17.45531 0 1 1 24.68554-24.68554l26 26a8.00053 8.00053 0 0 0 11.31446-11.31446l-13.65723-13.65625v-52.22265a46.65015 46.65015 0 0 1 40 46.16313v233.373z"/>
  <path d="m288 152h56v16h-56z"/>
  <path d="m360 152h16v16h-16z"/>
  <path d="m288 184h48v16h-48z"/>
  <path d="m288 216h32v16h-32z"/>
  <path d="m288 248h40v16h-40z"/>
  <path d="m288 280h64v16h-64z"/>
  <path d="m288 312h48v16h-48z"/>
  <path d="m288 344h32v16h-32z"/>
  <path d="m336 344h16v16h-16z"/>
  <path d="m55.919 208h48.081a8.00039 8.00039 0 0 0 8-8v-48.081a8.00039 8.00039 0 0 0 -8-8h-48.081a8.00039 8.00039 0 0 0 -8 8v48.081a8.00039 8.00039 0 0 0 8 8zm8-48.08105h32.081v32.08105h-32.081z"/>
  <path d="m135.919 208h48.081a8.00039 8.00039 0 0 0 8-8v-48.081a8.00039 8.00039 0 0 0 -8-8h-48.081a8.00039 8.00039 0 0 0 -8 8v48.081a8.00039 8.00039 0 0 0 8 8zm8-48.08105h32.081v32.08105h-32.081z"/>
  <path d="m264.08105 143.919h-48.08105a8.00039 8.00039 0 0 0 -8 8v48.081a8.00039 8.00039 0 0 0 8 8h48.08105a8.00039 8.00039 0 0 0 8-8v-48.081a8.00039 8.00039 0 0 0 -8-8zm-8 48.08105h-32.08105v-32.08105h32.08105z"/>
  <path d="m264.08105 223.919h-48.08105a8.00039 8.00039 0 0 0 -8 8v48.081a8.00039 8.00039 0 0 0 8 8h48.08105a8.00039 8.00039 0 0 0 8-8v-48.081a8.00039 8.00039 0 0 0 -8-8zm-8 48.08105h-32.08105v-32.08105h32.08105z"/>
  <path d="m135.919 288h48.081a8.00039 8.00039 0 0 0 8-8v-48.081a8.00039 8.00039 0 0 0 -8-8h-48.081a8.00039 8.00039 0 0 0 -8 8v48.081a8.00039 8.00039 0 0 0 8 8zm8-48.08105h32.081v32.08105h-32.081z"/>
  <path d="m104.08105 223.919h-48.08105a8.00039 8.00039 0 0 0 -8 8v48.081a8.00039 8.00039 0 0 0 8 8h48.08105a8.00039 8.00039 0 0 0 8-8v-48.081a8.00039 8.00039 0 0 0 -8-8zm-8 48.08105h-32.08105v-32.08105h32.08105z"/>
  <path d="m104.08105 303.919h-48.08105a8.00039 8.00039 0 0 0 -8 8v48.081a8.00039 8.00039 0 0 0 8 8h48.08105a8.00039 8.00039 0 0 0 8-8v-48.081a8.00039 8.00039 0 0 0 -8-8zm-8 48.08105h-32.08105v-32.08105h32.08105z"/>
  <path d="m184.08105 303.919h-48.08105a8.00039 8.00039 0 0 0 -8 8v48.081a8.00039 8.00039 0 0 0 8 8h48.08105a8.00039 8.00039 0 0 0 8-8v-48.081a8.00039 8.00039 0 0 0 -8-8zm-8 48.08105h-32.08105v-32.08105h32.08105z"/>
  <path d="m264 303.919h-48.081a8.00039 8.00039 0 0 0 -8 8v48.081a8.00039 8.00039 0 0 0 8 8h48.081a8.00039 8.00039 0 0 0 8-8v-48.081a8.00039 8.00039 0 0 0 -8-8zm-8 48.081h-32.081v-32.081h32.081z"/>
</svg>